<?xml version="1.0" standalone="no"?>
<!DOCTYPE svg PUBLIC "-//W3C//DTD SVG 20010904//EN"
 "http://www.w3.org/TR/2001/REC-SVG-20010904/DTD/svg10.dtd">
<svg version="1.0" xmlns="http://www.w3.org/2000/svg"
 width="1280.000000pt" height="1194.000000pt" viewBox="0 0 1280.000000 1194.000000"
 preserveAspectRatio="xMidYMid meet">
<metadata>
Created by potrace 1.15, written by Peter Selinger 2001-2017
</metadata>
<g transform="translate(0.000000,1194.000000) scale(0.100000,-0.100000)"
fill="#000000" stroke="none">
<path d="M4971 10989 c-115 -20 -303 -95 -410 -164 -28 -18 -56 -24 -129 -29
-272 -18 -517 -150 -658 -356 -26 -38 -52 -91 -59 -117 -11 -45 -16 -50 -84
-88 -93 -53 -172 -132 -217 -218 -37 -70 -63 -151 -64 -197 -1 -19 -18 -37
-71 -75 -178 -128 -388 -388 -542 -673 l-56 -104 14 -76 c44 -233 67 -514 90
-1087 21 -521 39 -725 85 -949 10 -50 18 -91 17 -92 -27 -13 -207 -135 -277
-187 -233 -172 -395 -325 -733 -692 -122 -132 -293 -313 -381 -402 l-160 -163
65 0 c121 0 130 4 247 108 59 52 206 188 327 302 254 239 383 354 510 453 183
143 512 346 536 331 7 -4 9 -3 6 2 -3 6 19 11 51 12 31 1 58 4 60 6 2 3 -2 14
-8 26 -7 12 -8 20 -2 16 5 -3 33 -62 61 -131 46 -112 113 -240 188 -358 l24
-38 -16 -220 c-14 -199 -34 -347 -53 -400 -7 -19 -9 -19 -49 10 l-42 30 -93
-137 c-51 -75 -112 -157 -134 -182 -35 -38 -1298 -1534 -1520 -1800 -50 -60
-233 -351 -629 -1000 -307 -503 -598 -980 -647 -1059 -48 -80 -86 -146 -84
-148 8 -8 176 31 253 59 134 48 219 111 393 287 215 218 275 263 431 317 116
40 201 54 380 61 575 21 1398 -174 2933 -696 451 -154 701 -198 1161 -208 367
-8 492 1 1320 97 281 33 578 65 660 71 83 7 151 13 153 14 2 2 -187 290 -418
641 -354 535 -432 648 -483 695 -78 70 -128 118 -107 101 26 -19 32 -14 27 22
-3 19 -1 56 4 82 9 46 107 278 181 426 50 101 84 188 72 188 -2 0 -15 -22 -29
-50 -14 -27 -28 -50 -30 -50 -3 0 26 63 65 140 38 77 70 144 70 149 0 4 -51
12 -112 16 -115 7 -217 22 -168 24 20 1 26 7 28 26 7 88 128 205 214 207 l30
1 -23 14 c-31 18 -24 16 159 -42 409 -129 701 -169 1061 -147 215 14 272 28
351 88 93 70 229 255 265 361 33 95 25 168 -43 374 -62 188 -72 222 -49 182
10 -19 12 -13 14 46 3 108 70 266 147 346 l43 46 -28 15 c-16 8 -29 17 -29 19
0 9 224 -107 295 -153 150 -96 180 -126 235 -233 69 -134 91 -224 92 -369 1
-113 -11 -211 -37 -320 -40 -165 -53 -725 -21 -964 65 -501 207 -763 528 -976
103 -68 260 -147 473 -236 138 -58 142 -59 235 -59 86 0 101 3 164 33 98 46
181 108 269 202 159 168 312 442 404 720 l48 145 48 23 c62 31 83 69 152 272
60 179 64 214 36 275 -27 58 -62 85 -186 143 -293 136 -558 223 -861 282 -133
26 -175 19 -235 -38 -34 -33 -45 -57 -99 -216 -37 -111 -60 -196 -60 -223 0
-51 19 -100 48 -126 l21 -19 -29 -78 c-36 -97 -75 -241 -104 -379 l-22 -105
-62 77 c-183 230 -276 497 -342 982 -64 464 -92 627 -144 817 -66 240 -139
410 -208 487 -45 50 -48 51 -324 154 l-278 103 -43 70 c-24 38 -41 77 -39 87
2 9 1 15 -4 12 -4 -3 -11 2 -14 11 -9 24 -7 31 4 14 8 -11 8 -7 3 15 -4 17 -8
77 -7 135 0 126 23 191 87 245 33 28 37 35 21 36 -21 2 32 9 288 37 199 23
275 48 328 109 26 29 30 42 30 90 l0 55 -252 392 c-440 684 -404 633 -522 730
-58 48 -108 92 -112 99 -4 6 1 5 12 -4 36 -30 47 -34 35 -11 -15 29 -14 78 5
147 9 33 22 85 30 115 l13 54 -25 -29 -25 -30 26 44 27 44 -46 183 c-48 192
-56 237 -26 144 l17 -55 -5 61 c-3 47 0 71 16 107 12 26 27 47 34 48 7 0 -3 7
-22 14 l-35 14 35 -4 c19 -3 330 -50 690 -106 853 -131 1224 -197 1638 -290
96 -21 178 -39 182 -39 8 0 88 102 96 123 3 9 -15 18 -58 29 -716 181 -855
211 -1803 388 -385 72 -716 135 -735 140 -34 9 -36 13 -67 109 -78 243 -228
578 -383 857 -135 243 -310 522 -776 1242 -29 45 -57 82 -62 82 -4 0 -190 42
-413 94 l-404 94 -70 -14 c-44 -9 -182 -18 -367 -23 -163 -5 -301 -12 -307
-15 -5 -3 -45 8 -88 26 -72 29 -87 32 -188 32 -88 0 -136 -7 -244 -32 -93 -22
-138 -29 -146 -22 -7 6 -39 20 -71 31 -68 24 -263 34 -353 18z m305 -70 l29
-11 -25 -8 c-14 -5 -94 -27 -179 -50 -144 -39 -157 -40 -204 -29 -31 7 -88 10
-146 7 l-96 -6 60 29 c95 45 213 79 305 87 92 8 211 -1 256 -19z m-902 -213
c-67 -45 -112 -98 -120 -141 -6 -36 -8 -37 -232 -146 -124 -60 -229 -109 -234
-109 -19 0 60 127 117 188 111 120 268 206 423 232 96 16 101 13 46 -24z
m-1300 -4161 c-10 -8 -23 -14 -29 -14 -5 0 -1 6 9 14 11 8 24 15 30 15 5 0 1
-7 -10 -15z m5953 -641 c-3 -3 -12 -4 -19 -1 -8 3 -5 6 6 6 11 1 17 -2 13 -5z
m-73 -379 c5 -22 4 -26 -4 -15 -5 8 -10 24 -10 34 0 26 6 18 14 -19z m-87
-847 c-3 -7 -5 -2 -5 12 0 14 2 19 5 13 2 -7 2 -19 0 -25z m-1897 -1608 c-6
-11 -13 -20 -16 -20 -2 0 0 9 6 20 6 11 13 20 16 20 2 0 0 -9 -6 -20z"/>
</g>
</svg>
